<?xml version="1.0" standalone="no"?>
<!DOCTYPE svg PUBLIC "-//W3C//DTD SVG 20010904//EN"
 "http://www.w3.org/TR/2001/REC-SVG-20010904/DTD/svg10.dtd">
<svg version="1.0" xmlns="http://www.w3.org/2000/svg"
 width="164.000000pt" height="164.000000pt" viewBox="0 0 164.000000 164.000000"
 preserveAspectRatio="xMidYMid meet">
<metadata>
Created by potrace 1.14, written by Peter Selinger 2001-2017
</metadata>
<g transform="translate(0.000000,164.000000) scale(0.100000,-0.100000)"
fill="#000000" stroke="none">
<path d="M601 1214 c-277 -39 -498 -154 -574 -299 -30 -57 -29 -145 2 -205 69
-130 274 -243 521 -286 76 -13 140 -15 315 -11 195 4 231 7 316 29 219 59 376
156 435 270 9 17 19 57 21 88 26 278 -501 488 -1036 414z m504 -28 c320 -68
520 -212 517 -373 -4 -177 -246 -332 -597 -381 -67 -9 -334 -9 -411 1 -109 13
-255 56 -349 101 -325 158 -325 403 0 561 102 50 167 70 304 95 126 23 418 21
536 -4z"/>
<path d="M812 1070 c-21 -89 -88 -176 -169 -219 -12 -6 -46 -18 -75 -25 -39
-11 -46 -15 -24 -15 47 -1 152 -58 191 -104 40 -46 58 -79 79 -147 11 -35 14
-39 16 -20 3 45 8 60 35 106 48 82 126 140 214 159 l34 7 -59 20 c-117 39
-207 139 -222 245 l-7 48 -13 -55z"/>
</g>
</svg>
